# xmcd
#
# Track frame offsets:
#  150
#  22676
#  35434
#  65272
#  84034
#  110605
#  130843
#  151363
#  167215
#  184127
#  198231
#  215216
#  232208
#  244012
#  260240
#
# Disc length: 3790 seconds
#
# Revision: 0
# Processed by: cddbd v1.5.1PL2 Copyright (c) Steve Scherf et al.
# Submitted via: Collectorz.com_Music_Collector 6.11
#
DISCID=ce0ecc0f
DTITLE=Diamond Dave And The Doodaddies - Lonely Part Of Town
DYEAR=2006
DGENRE=Blues
TTITLE0=Too Many Drivers
TTITLE1=Good Time Charlie
TTITLE2=Run Here Mama
TTITLE3=She Tried To Ruin Me
TTITLE4=Lonely Part Of Town
TTITLE5=She's My Baby
TTITLE6=Much Too Much
TTITLE7=Learn To Treat Me Right
TTITLE8=No Good Woman
TTITLE9=Born In Chicago
TTITLE10=Kiddio
TTITLE11=I Can Tell
TTITLE12=Pouring Water On A Drowning Man
TTITLE13=I Smell Trouble
TTITLE14=Just Around The Corner
EXTD=
EXTT0=
EXTT1=
EXTT2=
EXTT3=
EXTT4=
EXTT5=
EXTT6=
EXTT7=
EXTT8=
EXTT9=
EXTT10=
EXTT11=
EXTT12=
EXTT13=
EXTT14=
PLAYORDER=
